<svg width="62" height="62" viewBox="0 0 62 62" fill="none" xmlns="http://www.w3.org/2000/svg">
<circle cx="31" cy="31" r="30" stroke="white" stroke-opacity="0.2"/>
<path d="M27.8359 26.8198C28.7214 25.9344 29.7891 25.4917 31.0391 25.4917C32.2891 25.4917 33.3438 25.9344 34.2031 26.8198C35.0885 27.6792 35.5312 28.7339 35.5312 29.9839C35.5312 31.2339 35.0885 32.3016 34.2031 33.187C33.3438 34.0464 32.2891 34.4761 31.0391 34.4761C29.7891 34.4761 28.7214 34.0464 27.8359 33.187C26.9766 32.3016 26.5469 31.2339 26.5469 29.9839C26.5469 28.7339 26.9766 27.6792 27.8359 26.8198ZM28.9688 32.0542C29.5417 32.6271 30.2318 32.9136 31.0391 32.9136C31.8464 32.9136 32.5365 32.6271 33.1094 32.0542C33.6823 31.4813 33.9688 30.7912 33.9688 29.9839C33.9688 29.1766 33.6823 28.4865 33.1094 27.9136C32.5365 27.3407 31.8464 27.0542 31.0391 27.0542C30.2318 27.0542 29.5417 27.3407 28.9688 27.9136C28.3958 28.4865 28.1094 29.1766 28.1094 29.9839C28.1094 30.7912 28.3958 31.4813 28.9688 32.0542ZM36.4297 24.5933C36.638 24.7756 36.7422 25.0099 36.7422 25.2964C36.7422 25.5828 36.638 25.8302 36.4297 26.0386C36.2474 26.2469 36.013 26.3511 35.7266 26.3511C35.4401 26.3511 35.1927 26.2469 34.9844 26.0386C34.776 25.8302 34.6719 25.5828 34.6719 25.2964C34.6719 25.0099 34.776 24.7756 34.9844 24.5933C35.1927 24.3849 35.4401 24.2808 35.7266 24.2808C36.013 24.2808 36.2474 24.3849 36.4297 24.5933ZM39.75 26.3901C39.776 27.0933 39.7891 28.2912 39.7891 29.9839C39.7891 31.6766 39.776 32.8745 39.75 33.5776C39.6719 35.1662 39.1901 36.4032 38.3047 37.2886C37.4453 38.1479 36.2214 38.6037 34.6328 38.6558C33.9297 38.7078 32.7318 38.7339 31.0391 38.7339C29.3464 38.7339 28.1484 38.7078 27.4453 38.6558C25.8568 38.5776 24.6328 38.1089 23.7734 37.2495C23.4349 36.937 23.1615 36.5724 22.9531 36.1558C22.7448 35.7391 22.5885 35.3354 22.4844 34.9448C22.4062 34.5542 22.3672 34.0985 22.3672 33.5776C22.3151 32.8745 22.2891 31.6766 22.2891 29.9839C22.2891 28.2912 22.3151 27.0802 22.3672 26.3511C22.4453 24.7886 22.9141 23.5776 23.7734 22.7183C24.6328 21.8328 25.8568 21.3511 27.4453 21.2729C28.1484 21.2469 29.3464 21.2339 31.0391 21.2339C32.7318 21.2339 33.9297 21.2469 34.6328 21.2729C36.2214 21.3511 37.4453 21.8328 38.3047 22.7183C39.1901 23.5776 39.6719 24.8016 39.75 26.3901ZM37.875 35.1401C37.9531 34.9318 38.0182 34.6714 38.0703 34.3589C38.1224 34.0203 38.1615 33.6297 38.1875 33.187C38.2135 32.7183 38.2266 32.3407 38.2266 32.0542C38.2266 31.7677 38.2266 31.3641 38.2266 30.8433C38.2266 30.3224 38.2266 30.036 38.2266 29.9839C38.2266 29.9058 38.2266 29.6193 38.2266 29.1245C38.2266 28.6037 38.2266 28.2 38.2266 27.9136C38.2266 27.6271 38.2135 27.2625 38.1875 26.8198C38.1615 26.3511 38.1224 25.9604 38.0703 25.6479C38.0182 25.3094 37.9531 25.036 37.875 24.8276C37.5625 24.0203 37.0026 23.4604 36.1953 23.1479C35.987 23.0698 35.7135 23.0047 35.375 22.9526C35.0625 22.9006 34.6719 22.8615 34.2031 22.8354C33.7604 22.8094 33.3958 22.7964 33.1094 22.7964C32.849 22.7964 32.4453 22.7964 31.8984 22.7964C31.3776 22.7964 31.0911 22.7964 31.0391 22.7964C30.987 22.7964 30.7005 22.7964 30.1797 22.7964C29.6589 22.7964 29.2552 22.7964 28.9688 22.7964C28.6823 22.7964 28.3047 22.8094 27.8359 22.8354C27.3932 22.8615 27.0026 22.9006 26.6641 22.9526C26.3516 23.0047 26.0911 23.0698 25.8828 23.1479C25.0755 23.4604 24.5156 24.0203 24.2031 24.8276C24.125 25.036 24.0599 25.3094 24.0078 25.6479C23.9557 25.9604 23.9167 26.3511 23.8906 26.8198C23.8646 27.2625 23.8516 27.6271 23.8516 27.9136C23.8516 28.174 23.8516 28.5776 23.8516 29.1245C23.8516 29.6453 23.8516 29.9318 23.8516 29.9839C23.8516 30.0881 23.8516 30.3354 23.8516 30.7261C23.8516 31.0907 23.8516 31.4032 23.8516 31.6636C23.8516 31.8979 23.8516 32.2104 23.8516 32.6011C23.8776 32.9917 23.9036 33.3302 23.9297 33.6167C23.9557 33.8771 23.9948 34.1506 24.0469 34.437C24.099 34.7235 24.151 34.9578 24.2031 35.1401C24.5417 35.9474 25.1016 36.5073 25.8828 36.8198C26.0911 36.8979 26.3516 36.9631 26.6641 37.0151C27.0026 37.0672 27.3932 37.1063 27.8359 37.1323C28.3047 37.1584 28.6693 37.1714 28.9297 37.1714C29.2161 37.1714 29.6198 37.1714 30.1406 37.1714C30.6875 37.1714 30.987 37.1714 31.0391 37.1714C31.1172 37.1714 31.4036 37.1714 31.8984 37.1714C32.4193 37.1714 32.8229 37.1714 33.1094 37.1714C33.3958 37.1714 33.7604 37.1584 34.2031 37.1323C34.6719 37.1063 35.0625 37.0672 35.375 37.0151C35.7135 36.9631 35.987 36.8979 36.1953 36.8198C37.0026 36.4813 37.5625 35.9214 37.875 35.1401Z" fill="white"/>
</svg>
