<svg width="62" height="62" viewBox="0 0 62 62" fill="none" xmlns="http://www.w3.org/2000/svg">
<circle cx="31" cy="31" r="30" stroke="white" stroke-opacity="0.2"/>
<path d="M38.9297 25.9214C38.9557 26.0256 38.9688 26.1948 38.9688 26.4292C38.9688 27.8094 38.7083 29.1896 38.1875 30.5698C37.6667 31.924 36.9245 33.174 35.9609 34.3198C35.0234 35.4396 33.7995 36.3511 32.2891 37.0542C30.7786 37.7573 29.112 38.1089 27.2891 38.1089C24.9974 38.1089 22.901 37.4969 21 36.2729C21.2865 36.299 21.612 36.312 21.9766 36.312C23.8776 36.312 25.5833 35.7261 27.0938 34.5542C26.1823 34.5542 25.375 34.2938 24.6719 33.7729C23.9948 33.2261 23.526 32.549 23.2656 31.7417C23.526 31.7677 23.7734 31.7808 24.0078 31.7808C24.3724 31.7808 24.737 31.7417 25.1016 31.6636C24.4766 31.5334 23.9167 31.2729 23.4219 30.8823C22.9271 30.4917 22.5365 30.0229 22.25 29.4761C21.9635 28.9032 21.8203 28.2912 21.8203 27.6401V27.562C22.3932 27.9006 23.0052 28.0828 23.6562 28.1089C22.4323 27.2756 21.8203 26.1297 21.8203 24.6714C21.8203 23.9422 22.0156 23.2521 22.4062 22.6011C23.4219 23.8771 24.6589 24.8927 26.1172 25.6479C27.6016 26.4032 29.1771 26.8198 30.8438 26.8979C30.7917 26.5854 30.7656 26.2729 30.7656 25.9604C30.7656 24.8407 31.1562 23.8771 31.9375 23.0698C32.7448 22.2625 33.7083 21.8589 34.8281 21.8589C36.026 21.8589 37.0286 22.2886 37.8359 23.1479C38.7734 22.9657 39.6458 22.6401 40.4531 22.1714C40.1406 23.1349 39.5417 23.8901 38.6562 24.437C39.4375 24.3328 40.2188 24.1115 41 23.7729C40.4271 24.6063 39.737 25.3224 38.9297 25.9214Z" fill="white"/>
</svg>
